/* XPM */
static char *result[] = {
/* columns rows colors chars-per-pixel */
"32 32 12 1 ",
"  c #2A1D0D",
". c #572B10",
"X c #403022",
"o c #BD1332",
"O c #803520",
"+ c #AB561D",
"@ c #AD5B40",
"# c #E3936B",
"$ c #3C9F9C",
"% c #66D1A6",
"& c #BDDEBA",
"* c None",
/* pixels */
"********************************",
"********************************",
"********************************",
"********************************",
"********************************",
"************%****%**************",
"***********%******%*************",
"***********%**%&%*%*************",
"***********$$%%%$$$*****%%%&&%**",
"************$$$$$$*******$$$$***",
"************$####$******* XX ***",
"************#@#@##*******     **",
"**   ##      ####o            **",
"*****@@****  ooo#o   ****     **",
"*****X ***  o##ooo   X*** XX ***",
"***** X *XX ooooo$  XXX**$$$$***",
"*****X X XXXooo$o$%%XXX %%%&&%**",
"******X XXXXooo$$%%%*X X********",
"****** X X**o$o$%%%&* X ********",
"************o%%%&&&$*X X********",
"************$$$$$$$$**X ********",
"***********X $$$$$$ ** X********",
"**********XX   $$    *##********",
"**********XXX     XXXX*#********",
"********* X XX    XXXX**********",
"*********X X****** X X**********",
"********* X ******X X **********",
"********OOOOO****OOOOOO*********",
"*********...******....**********",
"*********++O******OO++**********",
"********OOOO       OOOO     ****",
"**********                 *****"
};
